Coordinates
version=1
nRows=32
nColumns=38
inDegrees=no

Units are S.I. units (second, meters, Newtons, ...)
If the header above contains a line with 'inDegrees', this indicates whether rotational values are in degrees (yes) or radians (no).

endheader
time	pelvis_tilt	pelvis_list	pelvis_rotation	pelvis_tx	pelvis_ty	pelvis_tz	hip_flexion_r	hip_adduction_r	hip_rotation_r	knee_angle_r	ankle_angle_r	subtalar_angle_r	mtp_angle_r	hip_flexion_l	hip_adduction_l	hip_rotation_l	knee_angle_l	ankle_angle_l	subtalar_angle_l	mtp_angle_l	lumbar_extension	lumbar_bending	lumbar_rotation	arm_flex_r	arm_add_r	arm_rot_r	elbow_flex_r	pro_sup_r	wrist_flex_r	wrist_dev_r	arm_flex_l	arm_add_l	arm_rot_l	elbow_flex_l	pro_sup_l	wrist_flex_l	wrist_dev_l
1.35	0.0176343	-0.0227857	-0.0834492	0.801045	0.956868	-0.370683	0.540958	0.076857	-0.0834279	-0.716717	0.321732	0.0146342	-0.0415119	-0.042868	-0.162441	-0.184436	-2.09261	0.0968738	0.0999999	-0.0429336	-0.321334	0.0843013	-0.170792	-0.455723	-0.607153	-0.399081	1.88475	1.3117	0.0370778	-0.0172792	-0.535294	-0.423614	0.0754735	1.96153	1.59563	-0.00132512	-0.0204243
1.35833	0.0162923	-0.0338426	-0.0948591	0.798041	0.952729	-0.36956	0.529093	0.0935966	-0.067144	-0.77947	0.352792	0.0146342	-0.0415119	0.0214656	-0.183634	-0.18125	-2.17491	0.13189	0.0999999	-0.0429336	-0.328289	0.0941695	-0.134767	-0.408465	-0.597968	-0.389567	1.8974	1.30887	0.0370778	-0.0172792	-0.549886	-0.410976	0.0527057	1.90621	1.60338	-0.00132512	-0.0204243
1.36667	0.0131022	-0.0445521	-0.106609	0.794806	0.949354	-0.368439	0.511611	0.109229	-0.0512327	-0.83148	0.394588	0.0146342	-0.0415119	0.0928638	-0.203485	-0.174897	-2.24477	0.165436	0.0999999	-0.0429336	-0.333495	0.103064	-0.0967002	-0.359409	-0.586597	-0.377547	1.9117	1.30709	0.0370778	-0.0172792	-0.561792	-0.399303	0.0288046	1.8527	1.6125	-0.00132512	-0.0204243
1.375	0.00874704	-0.0536172	-0.118275	0.791511	0.946834	-0.367322	0.486482	0.122091	-0.0355281	-0.868718	0.442001	0.0146342	-0.0415119	0.169577	-0.220359	-0.165897	-2.30026	0.196776	0.0999999	-0.0429336	-0.336888	0.10949	-0.0576247	-0.309772	-0.573027	-0.363014	1.92797	1.30622	0.0370778	-0.0172792	-0.572025	-0.389269	0.00396693	1.80351	1.62146	-0.00132512	-0.0204243
1.38333	0.00389741	-0.0598059	-0.12944	0.788346	0.945277	-0.366191	0.452544	0.13061	-0.0198222	-0.888955	0.490159	0.0146342	-0.0415119	0.249472	-0.232831	-0.15527	-2.33985	0.225096	0.0999999	-0.0429336	-0.338403	0.112073	-0.0185393	-0.260855	-0.557432	-0.346067	1.94651	1.30612	0.0370778	-0.0172792	-0.581657	-0.381589	-0.021608	1.76124	1.62842	-0.00132512	-0.0204243
1.39167	-0.00092045	-0.0621471	-0.139762	0.785498	0.944767	-0.365019	0.409602	0.133505	-0.00415723	-0.891663	0.535062	0.0146342	-0.0415119	0.3303	-0.239922	-0.144402	-2.3626	0.249645	0.0999999	-0.0429336	-0.337946	0.10979	0.0197519	-0.213931	-0.540216	-0.326886	1.96757	1.30683	0.0370778	-0.0172792	-0.591648	-0.376926	-0.0476796	1.72817	1.63153	-0.00132512	-0.0204243
1.4	-0.00541888	-0.0600777	-0.148996	0.783117	0.945324	-0.363787	0.358338	0.129946	0.0109358	-0.877635	0.573646	0.0146342	-0.0415119	0.409948	-0.241238	-0.134801	-2.36822	0.2699	0.0999999	-0.0429336	-0.335352	0.102154	0.0567172	-0.170132	-0.522012	-0.305646	1.99128	1.30856	0.0370778	-0.0172792	-0.60272	-0.375793	-0.0739538	1.7059	1.62932	-0.00132512	-0.0204243
1.40833	-0.00959359	-0.0534983	-0.156982	0.781311	0.946888	-0.3625	0.30011	0.119658	0.024335	-0.84854	0.603518	0.0146342	-0.0415119	0.486644	-0.236989	-0.127808	-2.35704	0.285674	0.0999999	-0.0429336	-0.330377	0.0892793	0.0920795	-0.130341	-0.503648	-0.282401	2.0176	1.31168	0.0370778	-0.0172792	-0.615313	-0.378483	-0.100113	1.69508	1.62109	-0.00132512	-0.0204243
1.41667	-0.0136925	-0.0427562	-0.163631	0.780145	0.949338	-0.361188	0.236722	0.102933	0.0343793	-0.806562	0.622638	0.0146342	-0.0415119	0.559058	-0.227884	-0.124365	-2.32994	0.297175	0.0999999	-0.0429336	-0.322716	0.0718323	0.125733	-0.0950948	-0.486062	-0.256993	2.0463	1.31671	0.0370778	-0.0172792	-0.629622	-0.385029	-0.125883	1.69536	1.60702	-0.00132512	-0.0204243
1.425	-0.0181224	-0.0285595	-0.168896	0.779641	0.952516	-0.35989	0.170193	0.0805746	0.0390671	-0.754194	0.629149	0.0146342	-0.0415119	0.626308	-0.214974	-0.124888	-2.28819	0.305006	0.0999999	-0.0429336	-0.312081	0.0508878	0.157642	-0.0645302	-0.470194	-0.229043	2.07696	1.32417	0.0370778	-0.0172792	-0.64566	-0.395209	-0.151117	1.70552	1.58815	-0.00132512	-0.0204243
1.43333	-0.0233221	-0.0118519	-0.172761	0.779785	0.956249	-0.358655	0.102568	0.0537809	0.0363554	-0.69416	0.621401	0.0146342	-0.0415119	0.687872	-0.199452	-0.129264	-2.23327	0.310081	0.0999999	-0.0429336	-0.2983	0.0277449	0.187749	-0.0383909	-0.456882	-0.198019	2.10902	1.33453	0.0370778	-0.0172792	-0.663334	-0.408576	-0.175845	1.72372	1.56618	-0.00132512	-0.0204243
1.44167	-0.0296462	0.00631993	-0.175218	0.780524	0.960362	-0.357535	0.0357624	0.023982	0.0245204	-0.629401	0.598137	0.0146342	-0.0415119	0.743465	-0.182463	-0.136946	-2.16671	0.313492	0.0999999	-0.0429336	-0.281413	0.0037476	0.215921	-0.0161017	-0.44678	-0.1634	2.14184	1.34817	0.0370778	-0.0172792	-0.682489	-0.424494	-0.200292	1.7478	1.5431	-0.00132512	-0.0204243
1.45	-0.0372871	0.024926	-0.176264	0.781765	0.964685	-0.356584	-0.0285463	-0.0073226	0.00252721	-0.563055	0.558767	0.0146342	-0.0415119	0.792921	-0.164966	-0.147108	-2.08995	0.316371	0.0999999	-0.0429336	-0.26172	-0.0198542	0.241947	0.00309407	-0.440306	-0.124845	2.17482	1.36527	0.0370778	-0.0172792	-0.702909	-0.442206	-0.224834	1.77564	1.52089	-0.00132512	-0.0204243
1.45833	-0.0462523	0.0430318	-0.175912	0.783389	0.969062	-0.355852	-0.0889771	-0.0387073	-0.0296593	-0.498399	0.503683	0.0146342	-0.0415119	0.836109	-0.147667	-0.15883	-2.00425	0.319772	0.0999999	-0.0429336	-0.239774	-0.0419976	0.265577	0.0199632	-0.437629	-0.0823618	2.20743	1.38578	0.0370778	-0.0172792	-0.724306	-0.460901	-0.249908	1.80535	1.5011	-0.00132512	-0.0204243
1.46667	-0.0563982	0.0598367	-0.174199	0.785257	0.973345	-0.355375	-0.144441	-0.0689254	-0.0709056	-0.438767	0.434595	0.0146342	-0.0415119	0.872896	-0.131023	-0.171257	-1.91064	0.324585	0.0999999	-0.0429336	-0.216321	-0.0618453	0.286598	0.0351181	-0.438674	-0.0363945	2.23928	1.40937	0.0370778	-0.0172792	-0.746283	-0.479794	-0.275897	1.83539	1.48463	-0.00132512	-0.0204243
1.475	-0.0674952	0.0746739	-0.171217	0.787233	0.977401	-0.355166	-0.194095	-0.0969208	-0.118773	-0.38744	0.35475	0.0146342	-0.0415119	0.90316	-0.115326	-0.183707	-1.80996	0.331477	0.0999999	-0.0429336	-0.192193	-0.0787744	0.304907	0.0488899	-0.443143	0.0121607	2.27013	1.43537	0.0370778	-0.0172792	-0.768333	-0.498197	-0.303046	1.86469	1.4716	-0.00132512	-0.0204243
1.48333	-0.0792948	0.0869848	-0.16712	0.789184	0.981112	-0.355205	-0.237269	-0.121781	-0.169522	-0.347502	0.268891	0.0146342	-0.0415119	0.926831	-0.100804	-0.195734	-1.70297	0.340871	0.0999999	-0.0429336	-0.168207	-0.0923389	0.320555	0.0612669	-0.450537	0.0620288	2.2998	1.46278	0.0370778	-0.0172792	-0.78985	-0.515578	-0.331412	1.89259	1.46151	-0.00132512	-0.0204243
1.49167	-0.0915661	0.0962924	-0.162119	0.790989	0.984383	-0.355438	-0.273425	-0.142691	-0.218417	-0.321682	0.182806	0.0146342	-0.0415119	0.943914	-0.0877097	-0.207139	-1.59042	0.352955	0.0999999	-0.0429336	-0.145094	-0.102232	0.333742	0.0719052	-0.4602	0.11169	2.32815	1.49026	0.0370778	-0.0172792	-0.810178	-0.531582	-0.360881	1.91879	1.45338	-0.00132512	-0.0204243
1.5	-0.10408	0.102202	-0.156459	0.792549	0.987152	-0.355774	-0.302172	-0.158939	-0.260455	-0.312175	0.102441	0.0146342	-0.0415119	0.954496	-0.0763295	-0.217932	-1.47322	0.367696	0.0999999	-0.0429336	-0.123479	-0.108279	0.344758	0.0802124	-0.471347	0.15955	2.35499	1.51619	0.0370778	-0.0172792	-0.828687	-0.546028	-0.391231	1.94328	1.44606	-0.00132512	-0.0204243
1.50833	-0.116546	0.104434	-0.150386	0.793799	0.989391	-0.356108	-0.32334	-0.169941	-0.291066	-0.320451	0.0327947	0.0146342	-0.0415119	0.958711	-0.066935	-0.228284	-1.35253	0.384882	0.0999999	-0.0429336	-0.103924	-0.110459	0.353896	0.0854826	-0.483123	0.204106	2.38	1.53874	0.0370778	-0.0172792	-0.844838	-0.558873	-0.42222	1.96625	1.43844	-0.00132512	-0.0204243
1.51667	-0.128524	0.102891	-0.144106	0.795122	0.991741	-0.356227	-0.3371	-0.175328	-0.307034	-0.347153	-0.0230488	0.0146342	-0.0415119	0.956692	-0.0596871	-0.23846	-1.22987	0.404148	0.0999999	-0.0429336	-0.0870023	-0.108958	0.36135	0.0870526	-0.494657	0.244093	2.40269	1.55601	0.0370778	-0.0172792	-0.858253	-0.570171	-0.453673	1.98802	1.42973	-0.00132512	-0.0204243
1.525	-0.139369	0.0977224	-0.137756	0.796214	0.993572	-0.356123	-0.344048	-0.175046	-0.307104	-0.392081	-0.064341	0.0146342	-0.0415119	0.948544	-0.0545581	-0.248765	-1.10718	0.425045	0.0999999	-0.0429336	-0.0733543	-0.104219	0.36715	0.0844386	-0.505137	0.278562	2.42244	1.56627	0.0370778	-0.0172792	-0.868743	-0.58004	-0.485538	2.00899	1.41957	-0.00132512	-0.0204243
1.53333	-0.14824	0.0893583	-0.131379	0.796793	0.994257	-0.35583	-0.345227	-0.169424	-0.292196	-0.454255	-0.0924328	0.0146342	-0.0415119	0.934366	-0.0512998	-0.259497	-0.986786	0.447047	0.0999999	-0.0429336	-0.0636935	-0.0969524	0.371144	0.0774208	-0.513881	0.306902	2.43857	1.56823	0.0370778	-0.0172792	-0.876304	-0.588654	-0.517891	2.02958	1.40811	-0.00132512	-0.0204243
1.54167	-0.154211	0.0785056	-0.12492	0.797149	0.994476	-0.35532	-0.342036	-0.159181	-0.26511	-0.532031	-0.109999	0.0146342	-0.0415119	0.914331	-0.0494728	-0.270898	-0.871355	0.469494	0.0999999	-0.0429336	-0.0587247	-0.0880916	0.373028	0.0660566	-0.520403	0.328804	2.45037	1.56132	0.0370778	-0.0172792	-0.881081	-0.596245	-0.550894	2.05018	1.39597	-0.00132512	-0.0204243
1.55	-0.156438	0.0660854	-0.118238	0.797328	0.994257	-0.354639	-0.336047	-0.1454	-0.230007	-0.623271	-0.120034	0.0146342	-0.0415119	0.888806	-0.0485064	-0.283073	-0.763719	0.491444	0.0999999	-0.0429336	-0.0590054	-0.0786877	0.372419	0.050634	-0.524456	0.344193	2.45723	1.5459	0.0370778	-0.0172792	-0.883308	-0.603112	-0.584714	2.07116	1.38416	-0.00132512	-0.0204243
1.55833	-0.154348	0.0531279	-0.111128	0.797363	0.993625	-0.353851	-0.328767	-0.129396	-0.191534	-0.725501	-0.125024	0.0146342	-0.0415119	0.858459	-0.0477866	-0.295901	-0.666688	0.511545	0.0999999	-0.0429336	-0.064794	-0.0697687	0.368933	0.0315893	-0.526032	0.353159	2.45869	1.52322	0.0370778	-0.0172792	-0.883234	-0.609626	-0.619433	2.09275	1.37391	-0.00132512	-0.0204243
1.56667	-0.147779	0.0406498	-0.103351	0.797268	0.992586	-0.353034	-0.321393	-0.112623	-0.154184	-0.836141	-0.126377	0.0146342	-0.0415119	0.824302	-0.0467184	-0.308957	-0.582811	0.52793	0.0999999	-0.0429336	-0.0759389	-0.0622034	0.362249	0.00942508	-0.525326	0.355917	2.45445	1.49532	0.0370778	-0.0172792	-0.881047	-0.616213	-0.654963	2.11511	1.36645	-0.00132512	-0.0204243
1.575	-0.137039	0.0295339	-0.0946604	0.797043	0.991127	-0.352257	-0.314636	-0.0965125	-0.121655	-0.952687	-0.124424	0.0146342	-0.0415119	0.787657	-0.0447796	-0.32149	-0.514166	0.538228	0.0999999	-0.0429336	-0.0918481	-0.0565977	0.35215	-0.0153447	-0.522671	0.352782	2.44437	1.4647	0.0370778	-0.0172792	-0.876799	-0.623317	-0.691	2.13823	1.36286	-0.00132512	-0.0204243
1.58333	-0.122871	0.0204475	-0.0848292	0.796673	0.989214	-0.351588	-0.308622	-0.0823856	-0.0965816	-1.07288	-0.118654	0.0146342	-0.0415119	0.750046	-0.0415344	-0.332445	-0.462202	0.539782	0.0999999	-0.0429336	-0.111549	-0.0532505	0.338527	-0.0422144	-0.518445	0.344173	2.42842	1.43398	0.0370778	-0.0172792	-0.870356	-0.631357	-0.727017	2.16197	1.36378	-0.00132512	-0.0204243
1.59167	-0.106353	0.0138038	-0.0736711	0.796135	0.986795	-0.35109	-0.302888	-0.0713546	-0.0803956	-1.19484	-0.108276	0.0146342	-0.0415119	0.713051	-0.0366502	-0.340607	-0.427694	0.530171	0.0999999	-0.0429336	-0.133814	-0.0521718	0.321371	-0.0706766	-0.512992	0.330618	2.40657	1.40555	0.0370778	-0.0172792	-0.861361	-0.64068	-0.762289	2.18607	1.3693	-0.00132512	-0.0204243
1.6	-0.0887612	0.0097789	-0.0610604	0.795392	0.983824	-0.350817	-0.29643	-0.0642912	-0.0734057	-1.31706	-0.0927146	0.0146342	-0.0415119	0.678196	-0.0298961	-0.344765	-0.410819	0.50805	0.0999999	-0.0429336	-0.157315	-0.0531583	0.300746	-0.100197	-0.506563	0.312746	2.3788	1.38138	0.0370778	-0.0172792	-0.849235	-0.651518	-0.795948	2.21018	1.37894	-0.00132512	-0.0204243
1.60833	-0.0714339	0.00836732	-0.0469411	0.794399	0.980252	-0.350816	-0.287802	-0.0618204	-0.0749668	-1.43844	-0.0719788	0.0146342	-0.0415119	0.646856	-0.0211496	-0.343936	-0.411295	0.474094	0.0999999	-0.0429336	-0.180772	-0.0558984	0.276762	-0.130193	-0.499287	0.291273	2.34503	1.36282	0.0370778	-0.0172792	-0.833209	-0.663957	-0.827028	2.23387	1.39175	-0.00132512	-0.0204243
